<mxfile host="app.diagrams.net" modified="2022-01-10T18:31:38.431Z" agent="5.0 (Macintosh; Intel Mac OS X 10_15_7) AppleWebKit/605.1.15 (KHTML, like Gecko) Version/15.2 Safari/605.1.15" etag="CIbEY303OQByYiAvOMxa" version="16.2.2" type="github">
  <diagram id="z0HHgGlnCuGLutk6PVgF" name="Page-1">
    <mxGraphModel dx="1963" dy="1859" grid="1" gridSize="10" guides="1" tooltips="1" connect="1" arrows="1" fold="1" page="1" pageScale="1" pageWidth="850" pageHeight="1100" math="1" shadow="0">
      <root>
        <mxCell id="0" />
        <mxCell id="1" parent="0" />
        <mxCell id="CTJLBTLDGU4M1NpmP4fn-86" value="" style="rounded=0;whiteSpace=wrap;html=1;shadow=0;glass=0;dashed=1;sketch=0;fillColor=none;" parent="1" vertex="1">
          <mxGeometry x="-238" y="190" width="289" height="348" as="geometry" />
        </mxCell>
        <mxCell id="CTJLBTLDGU4M1NpmP4fn-3" style="edgeStyle=orthogonalEdgeStyle;rounded=0;orthogonalLoop=1;jettySize=auto;html=1;entryX=0.5;entryY=1;entryDx=0;entryDy=0;strokeWidth=1.5;endArrow=openThin;endFill=0;exitX=0.5;exitY=0;exitDx=0;exitDy=0;" parent="1" source="CTJLBTLDGU4M1NpmP4fn-72" target="CTJLBTLDGU4M1NpmP4fn-2" edge="1">
          <mxGeometry relative="1" as="geometry">
            <mxPoint x="-68" y="537" as="sourcePoint" />
          </mxGeometry>
        </mxCell>
        <mxCell id="CTJLBTLDGU4M1NpmP4fn-6" style="edgeStyle=orthogonalEdgeStyle;rounded=0;orthogonalLoop=1;jettySize=auto;html=1;exitX=0.5;exitY=0;exitDx=0;exitDy=0;entryX=0.5;entryY=1;entryDx=0;entryDy=0;endArrow=openThin;endFill=0;strokeWidth=1.5;" parent="1" source="CTJLBTLDGU4M1NpmP4fn-2" target="CTJLBTLDGU4M1NpmP4fn-5" edge="1">
          <mxGeometry relative="1" as="geometry" />
        </mxCell>
        <mxCell id="CTJLBTLDGU4M1NpmP4fn-2" value="&lt;span style=&quot;font-size: 14px&quot;&gt;Multi-head Self-attention&lt;/span&gt;" style="rounded=1;whiteSpace=wrap;html=1;fillColor=#e1d5e7;strokeColor=#9673a6;" parent="1" vertex="1">
          <mxGeometry x="-163" y="468" width="190" height="30" as="geometry" />
        </mxCell>
        <mxCell id="CTJLBTLDGU4M1NpmP4fn-4" value="" style="edgeStyle=elbowEdgeStyle;elbow=horizontal;endArrow=openThin;html=1;strokeWidth=1.5;entryX=0;entryY=0.5;entryDx=0;entryDy=0;endFill=0;" parent="1" target="CTJLBTLDGU4M1NpmP4fn-5" edge="1">
          <mxGeometry width="50" height="50" relative="1" as="geometry">
            <mxPoint x="-68" y="518" as="sourcePoint" />
            <mxPoint x="32" y="428" as="targetPoint" />
            <Array as="points">
              <mxPoint x="-198" y="478" />
              <mxPoint x="102" y="458" />
            </Array>
          </mxGeometry>
        </mxCell>
        <mxCell id="CTJLBTLDGU4M1NpmP4fn-12" style="edgeStyle=orthogonalEdgeStyle;rounded=0;orthogonalLoop=1;jettySize=auto;html=1;exitX=0.5;exitY=0;exitDx=0;exitDy=0;entryX=0.5;entryY=1;entryDx=0;entryDy=0;endArrow=openThin;endFill=0;strokeWidth=1.5;" parent="1" source="CTJLBTLDGU4M1NpmP4fn-5" target="CTJLBTLDGU4M1NpmP4fn-7" edge="1">
          <mxGeometry relative="1" as="geometry" />
        </mxCell>
        <mxCell id="CTJLBTLDGU4M1NpmP4fn-5" value="" style="shape=orEllipse;perimeter=ellipsePerimeter;whiteSpace=wrap;html=1;backgroundOutline=1;fillColor=#f5f5f5;strokeColor=#666666;fontColor=#333333;" parent="1" vertex="1">
          <mxGeometry x="-83" y="418" width="30" height="30" as="geometry" />
        </mxCell>
        <mxCell id="CTJLBTLDGU4M1NpmP4fn-11" style="edgeStyle=orthogonalEdgeStyle;rounded=0;orthogonalLoop=1;jettySize=auto;html=1;exitX=0.5;exitY=0;exitDx=0;exitDy=0;entryX=0.5;entryY=1;entryDx=0;entryDy=0;endArrow=openThin;endFill=0;strokeWidth=1.5;" parent="1" source="CTJLBTLDGU4M1NpmP4fn-7" target="CTJLBTLDGU4M1NpmP4fn-10" edge="1">
          <mxGeometry relative="1" as="geometry" />
        </mxCell>
        <mxCell id="CTJLBTLDGU4M1NpmP4fn-7" value="&lt;span style=&quot;font-size: 14px&quot;&gt;LayerNorm&lt;/span&gt;" style="rounded=1;whiteSpace=wrap;html=1;fillColor=#d5e8d4;strokeColor=#82b366;" parent="1" vertex="1">
          <mxGeometry x="-130.5" y="368" width="125" height="30" as="geometry" />
        </mxCell>
        <mxCell id="CTJLBTLDGU4M1NpmP4fn-16" style="edgeStyle=orthogonalEdgeStyle;rounded=0;orthogonalLoop=1;jettySize=auto;html=1;exitX=0.5;exitY=0;exitDx=0;exitDy=0;entryX=0.5;entryY=1;entryDx=0;entryDy=0;endArrow=openThin;endFill=0;strokeWidth=1.5;" parent="1" source="CTJLBTLDGU4M1NpmP4fn-9" target="CTJLBTLDGU4M1NpmP4fn-15" edge="1">
          <mxGeometry relative="1" as="geometry" />
        </mxCell>
        <mxCell id="CTJLBTLDGU4M1NpmP4fn-9" value="" style="shape=orEllipse;perimeter=ellipsePerimeter;whiteSpace=wrap;html=1;backgroundOutline=1;fillColor=#f5f5f5;strokeColor=#666666;fontColor=#333333;" parent="1" vertex="1">
          <mxGeometry x="-83" y="258" width="30" height="30" as="geometry" />
        </mxCell>
        <mxCell id="CTJLBTLDGU4M1NpmP4fn-13" style="edgeStyle=orthogonalEdgeStyle;rounded=0;orthogonalLoop=1;jettySize=auto;html=1;exitX=0.5;exitY=0;exitDx=0;exitDy=0;entryX=0.5;entryY=1;entryDx=0;entryDy=0;endArrow=openThin;endFill=0;strokeWidth=1.5;" parent="1" source="CTJLBTLDGU4M1NpmP4fn-10" target="CTJLBTLDGU4M1NpmP4fn-9" edge="1">
          <mxGeometry relative="1" as="geometry" />
        </mxCell>
        <mxCell id="CTJLBTLDGU4M1NpmP4fn-10" value="&lt;span style=&quot;font-size: 14px&quot;&gt;Feed Forward Network&lt;/span&gt;" style="rounded=1;whiteSpace=wrap;html=1;fillColor=#fad9d5;strokeColor=#ae4132;" parent="1" vertex="1">
          <mxGeometry x="-163" y="308" width="190" height="30" as="geometry" />
        </mxCell>
        <mxCell id="CTJLBTLDGU4M1NpmP4fn-14" value="" style="edgeStyle=elbowEdgeStyle;elbow=horizontal;endArrow=openThin;html=1;strokeWidth=1.5;endFill=0;entryX=0;entryY=0.5;entryDx=0;entryDy=0;" parent="1" target="CTJLBTLDGU4M1NpmP4fn-9" edge="1">
          <mxGeometry width="50" height="50" relative="1" as="geometry">
            <mxPoint x="-68" y="355" as="sourcePoint" />
            <mxPoint x="-88" y="288" as="targetPoint" />
            <Array as="points">
              <mxPoint x="-198" y="318" />
            </Array>
          </mxGeometry>
        </mxCell>
        <mxCell id="CTJLBTLDGU4M1NpmP4fn-18" style="edgeStyle=orthogonalEdgeStyle;rounded=0;orthogonalLoop=1;jettySize=auto;html=1;exitX=0.5;exitY=0;exitDx=0;exitDy=0;endArrow=openThin;endFill=0;strokeWidth=1.5;entryX=0;entryY=0.5;entryDx=0;entryDy=0;" parent="1" source="CTJLBTLDGU4M1NpmP4fn-15" target="Ly3B1sIh1hLR3FMpoDLW-36" edge="1">
          <mxGeometry relative="1" as="geometry">
            <mxPoint x="-159" y="164" as="targetPoint" />
            <Array as="points">
              <mxPoint x="-68" y="170" />
              <mxPoint x="80" y="170" />
              <mxPoint x="80" y="323" />
            </Array>
          </mxGeometry>
        </mxCell>
        <mxCell id="CTJLBTLDGU4M1NpmP4fn-15" value="&lt;span style=&quot;font-size: 14px&quot;&gt;LayerNorm&lt;/span&gt;" style="rounded=1;whiteSpace=wrap;html=1;fillColor=#d5e8d4;strokeColor=#82b366;" parent="1" vertex="1">
          <mxGeometry x="-130.5" y="208" width="125" height="30" as="geometry" />
        </mxCell>
        <mxCell id="CTJLBTLDGU4M1NpmP4fn-75" style="edgeStyle=none;rounded=0;orthogonalLoop=1;jettySize=auto;html=1;exitX=0.5;exitY=0;exitDx=0;exitDy=0;entryX=0.5;entryY=1;entryDx=0;entryDy=0;endArrow=openThin;endFill=0;strokeWidth=1.5;" parent="1" source="CTJLBTLDGU4M1NpmP4fn-62" target="CTJLBTLDGU4M1NpmP4fn-72" edge="1">
          <mxGeometry relative="1" as="geometry" />
        </mxCell>
        <mxCell id="CTJLBTLDGU4M1NpmP4fn-62" value="&lt;font style=&quot;font-size: 14px&quot;&gt;Word Embedding&lt;/font&gt;" style="rounded=1;whiteSpace=wrap;html=1;fillColor=#dae8fc;strokeColor=#6c8ebf;" parent="1" vertex="1">
          <mxGeometry x="-128" y="605.5" width="120" height="30" as="geometry" />
        </mxCell>
        <mxCell id="CTJLBTLDGU4M1NpmP4fn-64" value="" style="endArrow=openThin;html=1;strokeWidth=1.5;entryX=0.5;entryY=1;entryDx=0;entryDy=0;endFill=0;" parent="1" edge="1">
          <mxGeometry width="50" height="50" relative="1" as="geometry">
            <mxPoint x="-68" y="660" as="sourcePoint" />
            <mxPoint x="-68.00000000000023" y="635.5" as="targetPoint" />
          </mxGeometry>
        </mxCell>
        <mxCell id="CTJLBTLDGU4M1NpmP4fn-90" style="edgeStyle=none;rounded=0;orthogonalLoop=1;jettySize=auto;html=1;exitX=1;exitY=0.5;exitDx=0;exitDy=0;entryX=0;entryY=0.5;entryDx=0;entryDy=0;endArrow=openThin;endFill=0;strokeWidth=1.5;" parent="1" source="CTJLBTLDGU4M1NpmP4fn-65" target="CTJLBTLDGU4M1NpmP4fn-72" edge="1">
          <mxGeometry relative="1" as="geometry" />
        </mxCell>
        <mxCell id="CTJLBTLDGU4M1NpmP4fn-65" value="" style="ellipse;whiteSpace=wrap;html=1;aspect=fixed;rounded=0;shadow=0;glass=0;sketch=0;strokeColor=#000000;fillColor=none;gradientColor=none;" parent="1" vertex="1">
          <mxGeometry x="-135" y="553" width="30" height="30" as="geometry" />
        </mxCell>
        <mxCell id="CTJLBTLDGU4M1NpmP4fn-69" value="" style="curved=1;endArrow=none;html=1;strokeWidth=1;exitX=0;exitY=0.5;exitDx=0;exitDy=0;entryX=1;entryY=0.5;entryDx=0;entryDy=0;endFill=0;" parent="1" source="CTJLBTLDGU4M1NpmP4fn-65" target="CTJLBTLDGU4M1NpmP4fn-65" edge="1">
          <mxGeometry width="50" height="50" relative="1" as="geometry">
            <mxPoint x="-125" y="612" as="sourcePoint" />
            <mxPoint x="-75" y="562" as="targetPoint" />
            <Array as="points">
              <mxPoint x="-125" y="553" />
              <mxPoint x="-120" y="568" />
              <mxPoint x="-115" y="583" />
            </Array>
          </mxGeometry>
        </mxCell>
        <mxCell id="CTJLBTLDGU4M1NpmP4fn-71" value="&lt;font style=&quot;font-size: 14px&quot;&gt;Positional&lt;br&gt;Encoding&lt;/font&gt;" style="text;html=1;align=center;verticalAlign=middle;resizable=0;points=[];autosize=1;strokeColor=none;" parent="1" vertex="1">
          <mxGeometry x="-215" y="548" width="80" height="40" as="geometry" />
        </mxCell>
        <mxCell id="CTJLBTLDGU4M1NpmP4fn-72" value="" style="shape=orEllipse;perimeter=ellipsePerimeter;whiteSpace=wrap;html=1;backgroundOutline=1;fillColor=#f5f5f5;strokeColor=#666666;fontColor=#333333;" parent="1" vertex="1">
          <mxGeometry x="-83" y="553" width="30" height="30" as="geometry" />
        </mxCell>
        <mxCell id="CTJLBTLDGU4M1NpmP4fn-84" value="&lt;font style=&quot;font-size: 30px&quot;&gt;N×&lt;/font&gt;" style="text;html=1;align=center;verticalAlign=middle;resizable=0;points=[];autosize=1;strokeColor=none;" parent="1" vertex="1">
          <mxGeometry x="-324" y="343" width="50" height="30" as="geometry" />
        </mxCell>
        <mxCell id="Ly3B1sIh1hLR3FMpoDLW-1" value="&lt;font style=&quot;font-size: 15px&quot;&gt;Encoded Previous Hypotheses&lt;/font&gt;" style="text;html=1;align=center;verticalAlign=middle;resizable=0;points=[];autosize=1;strokeColor=none;fillColor=none;" parent="1" vertex="1">
          <mxGeometry x="-178" y="660" width="220" height="20" as="geometry" />
        </mxCell>
        <mxCell id="Ly3B1sIh1hLR3FMpoDLW-2" value="" style="rounded=0;whiteSpace=wrap;html=1;shadow=0;glass=0;dashed=1;sketch=0;fillColor=none;" parent="1" vertex="1">
          <mxGeometry x="110" y="30" width="290" height="508" as="geometry" />
        </mxCell>
        <mxCell id="Ly3B1sIh1hLR3FMpoDLW-3" style="edgeStyle=orthogonalEdgeStyle;rounded=0;orthogonalLoop=1;jettySize=auto;html=1;entryX=0.5;entryY=1;entryDx=0;entryDy=0;strokeWidth=1.5;endArrow=openThin;endFill=0;exitX=0.5;exitY=0;exitDx=0;exitDy=0;" parent="1" source="Ly3B1sIh1hLR3FMpoDLW-30" target="Ly3B1sIh1hLR3FMpoDLW-5" edge="1">
          <mxGeometry relative="1" as="geometry">
            <mxPoint x="230" y="537" as="sourcePoint" />
          </mxGeometry>
        </mxCell>
        <mxCell id="Ly3B1sIh1hLR3FMpoDLW-4" style="edgeStyle=orthogonalEdgeStyle;rounded=0;orthogonalLoop=1;jettySize=auto;html=1;exitX=0.5;exitY=0;exitDx=0;exitDy=0;entryX=0.5;entryY=1;entryDx=0;entryDy=0;endArrow=openThin;endFill=0;strokeWidth=1.5;" parent="1" source="Ly3B1sIh1hLR3FMpoDLW-5" target="Ly3B1sIh1hLR3FMpoDLW-8" edge="1">
          <mxGeometry relative="1" as="geometry" />
        </mxCell>
        <mxCell id="Ly3B1sIh1hLR3FMpoDLW-5" value="&lt;span style=&quot;font-size: 14px&quot;&gt;Multi-head Self-attention&lt;/span&gt;" style="rounded=1;whiteSpace=wrap;html=1;fillColor=#e1d5e7;strokeColor=#9673a6;" parent="1" vertex="1">
          <mxGeometry x="135" y="468" width="190" height="30" as="geometry" />
        </mxCell>
        <mxCell id="Ly3B1sIh1hLR3FMpoDLW-6" value="" style="edgeStyle=elbowEdgeStyle;elbow=horizontal;endArrow=openThin;html=1;strokeWidth=1.5;entryX=1;entryY=0.5;entryDx=0;entryDy=0;endFill=0;" parent="1" target="Ly3B1sIh1hLR3FMpoDLW-8" edge="1">
          <mxGeometry width="50" height="50" relative="1" as="geometry">
            <mxPoint x="230" y="518" as="sourcePoint" />
            <mxPoint x="330" y="428" as="targetPoint" />
            <Array as="points">
              <mxPoint x="360" y="470" />
              <mxPoint x="400" y="458" />
            </Array>
          </mxGeometry>
        </mxCell>
        <mxCell id="Ly3B1sIh1hLR3FMpoDLW-7" style="edgeStyle=orthogonalEdgeStyle;rounded=0;orthogonalLoop=1;jettySize=auto;html=1;exitX=0.5;exitY=0;exitDx=0;exitDy=0;entryX=0.5;entryY=1;entryDx=0;entryDy=0;endArrow=openThin;endFill=0;strokeWidth=1.5;" parent="1" source="Ly3B1sIh1hLR3FMpoDLW-8" target="Ly3B1sIh1hLR3FMpoDLW-10" edge="1">
          <mxGeometry relative="1" as="geometry" />
        </mxCell>
        <mxCell id="Ly3B1sIh1hLR3FMpoDLW-8" value="" style="shape=orEllipse;perimeter=ellipsePerimeter;whiteSpace=wrap;html=1;backgroundOutline=1;fillColor=#f5f5f5;strokeColor=#666666;fontColor=#333333;" parent="1" vertex="1">
          <mxGeometry x="215" y="418" width="30" height="30" as="geometry" />
        </mxCell>
        <mxCell id="Ly3B1sIh1hLR3FMpoDLW-9" style="edgeStyle=orthogonalEdgeStyle;rounded=0;orthogonalLoop=1;jettySize=auto;html=1;exitX=0.5;exitY=0;exitDx=0;exitDy=0;entryX=0.5;entryY=1;entryDx=0;entryDy=0;endArrow=openThin;endFill=0;strokeWidth=1.5;" parent="1" source="Ly3B1sIh1hLR3FMpoDLW-39" target="Ly3B1sIh1hLR3FMpoDLW-14" edge="1">
          <mxGeometry relative="1" as="geometry">
            <mxPoint x="230" y="201" as="sourcePoint" />
          </mxGeometry>
        </mxCell>
        <mxCell id="Ly3B1sIh1hLR3FMpoDLW-41" style="edgeStyle=orthogonalEdgeStyle;rounded=0;orthogonalLoop=1;jettySize=auto;html=1;exitX=0.5;exitY=0;exitDx=0;exitDy=0;entryX=0.5;entryY=1;entryDx=0;entryDy=0;fontSize=30;strokeWidth=1.5;endArrow=openThin;endFill=0;" parent="1" source="Ly3B1sIh1hLR3FMpoDLW-10" target="Ly3B1sIh1hLR3FMpoDLW-36" edge="1">
          <mxGeometry relative="1" as="geometry" />
        </mxCell>
        <mxCell id="Ly3B1sIh1hLR3FMpoDLW-10" value="&lt;span style=&quot;font-size: 14px&quot;&gt;LayerNorm&lt;/span&gt;" style="rounded=1;whiteSpace=wrap;html=1;fillColor=#d5e8d4;strokeColor=#82b366;" parent="1" vertex="1">
          <mxGeometry x="167.5" y="368" width="125" height="30" as="geometry" />
        </mxCell>
        <mxCell id="Ly3B1sIh1hLR3FMpoDLW-11" style="edgeStyle=orthogonalEdgeStyle;rounded=0;orthogonalLoop=1;jettySize=auto;html=1;exitX=0.5;exitY=0;exitDx=0;exitDy=0;entryX=0.5;entryY=1;entryDx=0;entryDy=0;endArrow=openThin;endFill=0;strokeWidth=1.5;" parent="1" source="Ly3B1sIh1hLR3FMpoDLW-12" target="Ly3B1sIh1hLR3FMpoDLW-17" edge="1">
          <mxGeometry relative="1" as="geometry" />
        </mxCell>
        <mxCell id="Ly3B1sIh1hLR3FMpoDLW-12" value="" style="shape=orEllipse;perimeter=ellipsePerimeter;whiteSpace=wrap;html=1;backgroundOutline=1;fillColor=#f5f5f5;strokeColor=#666666;fontColor=#333333;" parent="1" vertex="1">
          <mxGeometry x="215" y="91" width="30" height="30" as="geometry" />
        </mxCell>
        <mxCell id="Ly3B1sIh1hLR3FMpoDLW-13" style="edgeStyle=orthogonalEdgeStyle;rounded=0;orthogonalLoop=1;jettySize=auto;html=1;exitX=0.5;exitY=0;exitDx=0;exitDy=0;entryX=0.5;entryY=1;entryDx=0;entryDy=0;endArrow=openThin;endFill=0;strokeWidth=1.5;" parent="1" source="Ly3B1sIh1hLR3FMpoDLW-14" target="Ly3B1sIh1hLR3FMpoDLW-12" edge="1">
          <mxGeometry relative="1" as="geometry" />
        </mxCell>
        <mxCell id="Ly3B1sIh1hLR3FMpoDLW-14" value="&lt;span style=&quot;font-size: 14px&quot;&gt;Feed Forward Network&lt;/span&gt;" style="rounded=1;whiteSpace=wrap;html=1;fillColor=#fad9d5;strokeColor=#ae4132;" parent="1" vertex="1">
          <mxGeometry x="135" y="141" width="190" height="30" as="geometry" />
        </mxCell>
        <mxCell id="Ly3B1sIh1hLR3FMpoDLW-15" value="" style="edgeStyle=elbowEdgeStyle;elbow=horizontal;endArrow=openThin;html=1;strokeWidth=1.5;endFill=0;entryX=1;entryY=0.5;entryDx=0;entryDy=0;" parent="1" target="Ly3B1sIh1hLR3FMpoDLW-12" edge="1">
          <mxGeometry width="50" height="50" relative="1" as="geometry">
            <mxPoint x="230" y="188" as="sourcePoint" />
            <mxPoint x="210" y="121" as="targetPoint" />
            <Array as="points">
              <mxPoint x="360" y="163" />
            </Array>
          </mxGeometry>
        </mxCell>
        <mxCell id="Ly3B1sIh1hLR3FMpoDLW-16" style="edgeStyle=orthogonalEdgeStyle;rounded=0;orthogonalLoop=1;jettySize=auto;html=1;exitX=0.5;exitY=0;exitDx=0;exitDy=0;endArrow=openThin;endFill=0;strokeWidth=1.5;entryX=0.5;entryY=1;entryDx=0;entryDy=0;" parent="1" source="Ly3B1sIh1hLR3FMpoDLW-17" target="Ly3B1sIh1hLR3FMpoDLW-32" edge="1">
          <mxGeometry relative="1" as="geometry">
            <mxPoint x="230" y="155" as="targetPoint" />
          </mxGeometry>
        </mxCell>
        <mxCell id="Ly3B1sIh1hLR3FMpoDLW-17" value="&lt;span style=&quot;font-size: 14px&quot;&gt;LayerNorm&lt;/span&gt;" style="rounded=1;whiteSpace=wrap;html=1;fillColor=#d5e8d4;strokeColor=#82b366;" parent="1" vertex="1">
          <mxGeometry x="167.5" y="41" width="125" height="30" as="geometry" />
        </mxCell>
        <mxCell id="Ly3B1sIh1hLR3FMpoDLW-23" style="edgeStyle=none;rounded=0;orthogonalLoop=1;jettySize=auto;html=1;exitX=0.5;exitY=0;exitDx=0;exitDy=0;entryX=0.5;entryY=1;entryDx=0;entryDy=0;endArrow=openThin;endFill=0;strokeWidth=1.5;" parent="1" source="Ly3B1sIh1hLR3FMpoDLW-24" target="Ly3B1sIh1hLR3FMpoDLW-30" edge="1">
          <mxGeometry relative="1" as="geometry" />
        </mxCell>
        <mxCell id="Ly3B1sIh1hLR3FMpoDLW-24" value="&lt;font style=&quot;font-size: 14px&quot;&gt;Word Embedding&lt;/font&gt;" style="rounded=1;whiteSpace=wrap;html=1;fillColor=#dae8fc;strokeColor=#6c8ebf;" parent="1" vertex="1">
          <mxGeometry x="170" y="605.5" width="120" height="30" as="geometry" />
        </mxCell>
        <mxCell id="Ly3B1sIh1hLR3FMpoDLW-25" value="" style="endArrow=openThin;html=1;strokeWidth=1.5;entryX=0.5;entryY=1;entryDx=0;entryDy=0;endFill=0;" parent="1" edge="1">
          <mxGeometry width="50" height="50" relative="1" as="geometry">
            <mxPoint x="230" y="660" as="sourcePoint" />
            <mxPoint x="230" y="635.5" as="targetPoint" />
          </mxGeometry>
        </mxCell>
        <mxCell id="Ly3B1sIh1hLR3FMpoDLW-26" style="edgeStyle=none;rounded=0;orthogonalLoop=1;jettySize=auto;html=1;exitX=0;exitY=0.5;exitDx=0;exitDy=0;entryX=1;entryY=0.5;entryDx=0;entryDy=0;endArrow=openThin;endFill=0;strokeWidth=1.5;" parent="1" source="Ly3B1sIh1hLR3FMpoDLW-27" target="Ly3B1sIh1hLR3FMpoDLW-30" edge="1">
          <mxGeometry relative="1" as="geometry">
            <mxPoint x="338.7500000000002" y="568" as="targetPoint" />
          </mxGeometry>
        </mxCell>
        <mxCell id="Ly3B1sIh1hLR3FMpoDLW-27" value="" style="ellipse;whiteSpace=wrap;html=1;aspect=fixed;rounded=0;shadow=0;glass=0;sketch=0;strokeColor=#000000;fillColor=none;gradientColor=none;" parent="1" vertex="1">
          <mxGeometry x="270" y="553" width="30" height="30" as="geometry" />
        </mxCell>
        <mxCell id="Ly3B1sIh1hLR3FMpoDLW-28" value="" style="curved=1;endArrow=none;html=1;strokeWidth=1;exitX=0;exitY=0.5;exitDx=0;exitDy=0;entryX=1;entryY=0.5;entryDx=0;entryDy=0;endFill=0;" parent="1" source="Ly3B1sIh1hLR3FMpoDLW-27" target="Ly3B1sIh1hLR3FMpoDLW-27" edge="1">
          <mxGeometry width="50" height="50" relative="1" as="geometry">
            <mxPoint x="280" y="612" as="sourcePoint" />
            <mxPoint x="330" y="562" as="targetPoint" />
            <Array as="points">
              <mxPoint x="280" y="553" />
              <mxPoint x="285" y="568" />
              <mxPoint x="290" y="583" />
            </Array>
          </mxGeometry>
        </mxCell>
        <mxCell id="Ly3B1sIh1hLR3FMpoDLW-29" value="&lt;font style=&quot;font-size: 14px&quot;&gt;Positional&lt;br&gt;Encoding&lt;/font&gt;" style="text;html=1;align=center;verticalAlign=middle;resizable=0;points=[];autosize=1;strokeColor=none;" parent="1" vertex="1">
          <mxGeometry x="310" y="548" width="80" height="40" as="geometry" />
        </mxCell>
        <mxCell id="Ly3B1sIh1hLR3FMpoDLW-30" value="" style="shape=orEllipse;perimeter=ellipsePerimeter;whiteSpace=wrap;html=1;backgroundOutline=1;fillColor=#f5f5f5;strokeColor=#666666;fontColor=#333333;" parent="1" vertex="1">
          <mxGeometry x="215" y="553" width="30" height="30" as="geometry" />
        </mxCell>
        <mxCell id="Ly3B1sIh1hLR3FMpoDLW-31" style="edgeStyle=none;rounded=0;orthogonalLoop=1;jettySize=auto;html=1;exitX=0.5;exitY=0;exitDx=0;exitDy=0;endArrow=openThin;endFill=0;strokeWidth=1.5;" parent="1" source="Ly3B1sIh1hLR3FMpoDLW-32" edge="1">
          <mxGeometry relative="1" as="geometry">
            <mxPoint x="230.16666666666697" y="-38" as="targetPoint" />
          </mxGeometry>
        </mxCell>
        <mxCell id="Ly3B1sIh1hLR3FMpoDLW-32" value="&lt;span style=&quot;font-size: 14px&quot;&gt;Output Layer&lt;/span&gt;" style="rounded=1;whiteSpace=wrap;html=1;fillColor=#fff2cc;strokeColor=#d6b656;" parent="1" vertex="1">
          <mxGeometry x="173.25" y="-14" width="113.5" height="30" as="geometry" />
        </mxCell>
        <mxCell id="Ly3B1sIh1hLR3FMpoDLW-33" value="&lt;font style=&quot;font-size: 30px&quot;&gt;N×&lt;/font&gt;" style="text;html=1;align=center;verticalAlign=middle;resizable=0;points=[];autosize=1;strokeColor=none;" parent="1" vertex="1">
          <mxGeometry x="440" y="338" width="50" height="30" as="geometry" />
        </mxCell>
        <mxCell id="Ly3B1sIh1hLR3FMpoDLW-34" value="&lt;span style=&quot;font-size: 15px&quot;&gt;Current Sentence&lt;/span&gt;" style="text;html=1;align=center;verticalAlign=middle;resizable=0;points=[];autosize=1;strokeColor=none;fillColor=none;" parent="1" vertex="1">
          <mxGeometry x="165" y="660" width="130" height="20" as="geometry" />
        </mxCell>
        <mxCell id="Ly3B1sIh1hLR3FMpoDLW-35" style="edgeStyle=orthogonalEdgeStyle;rounded=0;orthogonalLoop=1;jettySize=auto;html=1;exitX=0.5;exitY=0;exitDx=0;exitDy=0;entryX=0.5;entryY=1;entryDx=0;entryDy=0;endArrow=openThin;endFill=0;strokeWidth=1.5;" parent="1" source="Ly3B1sIh1hLR3FMpoDLW-36" target="Ly3B1sIh1hLR3FMpoDLW-38" edge="1">
          <mxGeometry relative="1" as="geometry" />
        </mxCell>
        <mxCell id="Ly3B1sIh1hLR3FMpoDLW-36" value="&lt;span style=&quot;font-size: 14px&quot;&gt;Multi-head Attention&lt;/span&gt;" style="rounded=1;whiteSpace=wrap;html=1;fillColor=#E6D0DE;strokeColor=#9673a6;" parent="1" vertex="1">
          <mxGeometry x="135" y="308" width="190" height="30" as="geometry" />
        </mxCell>
        <mxCell id="Ly3B1sIh1hLR3FMpoDLW-37" style="edgeStyle=orthogonalEdgeStyle;rounded=0;orthogonalLoop=1;jettySize=auto;html=1;exitX=0.5;exitY=0;exitDx=0;exitDy=0;entryX=0.5;entryY=1;entryDx=0;entryDy=0;endArrow=openThin;endFill=0;strokeWidth=1.5;" parent="1" source="Ly3B1sIh1hLR3FMpoDLW-38" target="Ly3B1sIh1hLR3FMpoDLW-39" edge="1">
          <mxGeometry relative="1" as="geometry" />
        </mxCell>
        <mxCell id="Ly3B1sIh1hLR3FMpoDLW-38" value="" style="shape=orEllipse;perimeter=ellipsePerimeter;whiteSpace=wrap;html=1;backgroundOutline=1;fillColor=#f5f5f5;strokeColor=#666666;fontColor=#333333;" parent="1" vertex="1">
          <mxGeometry x="215" y="258" width="30" height="30" as="geometry" />
        </mxCell>
        <mxCell id="Ly3B1sIh1hLR3FMpoDLW-39" value="&lt;span style=&quot;font-size: 14px&quot;&gt;LayerNorm&lt;/span&gt;" style="rounded=1;whiteSpace=wrap;html=1;fillColor=#d5e8d4;strokeColor=#82b366;" parent="1" vertex="1">
          <mxGeometry x="167.5" y="208" width="125" height="30" as="geometry" />
        </mxCell>
        <mxCell id="Ly3B1sIh1hLR3FMpoDLW-42" value="" style="edgeStyle=elbowEdgeStyle;elbow=horizontal;endArrow=openThin;html=1;strokeWidth=1.5;entryX=1;entryY=0.5;entryDx=0;entryDy=0;endFill=0;" parent="1" target="Ly3B1sIh1hLR3FMpoDLW-38" edge="1">
          <mxGeometry width="50" height="50" relative="1" as="geometry">
            <mxPoint x="230" y="356" as="sourcePoint" />
            <mxPoint x="245.00000000000023" y="271" as="targetPoint" />
            <Array as="points">
              <mxPoint x="360" y="308" />
              <mxPoint x="400" y="296" />
            </Array>
          </mxGeometry>
        </mxCell>
      </root>
    </mxGraphModel>
  </diagram>
</mxfile>
